<svg width="24.000000" height="21.500000" viewBox="0 0 24 21.5" fill="none" xmlns="http://www.w3.org/2000/svg" xmlns:xlink="http://www.w3.org/1999/xlink">
	<desc>
			Created with Pixso.
	</desc>
	<defs/>
	<rect id="Frame 1985" rx="-0.500000" width="23.000000" height="20.000000" transform="translate(0.500000 0.500000)" fill="#FFFFFF" fill-opacity="0"/>
	<path id="Vector 399" d="M7.89 17C4.86 17 4.74 17 4.74 17C-1.59 17 -1.58 7.42 4.73 7.42C4.73 4.86 7.89 4.22 9.15 5.5C10.42 -2.8 23.69 -1.53 21.79 8.06C25.58 10.61 24.32 16.96 19.26 16.96L17.37 16.96L7.89 17Z" fill="#FFD600" fill-opacity="1.000000" fill-rule="evenodd"/>
	<path id="Vector 398" d="M12.5 10.2L10.52 12.18C10.32 12.38 10.01 12.38 9.81 12.18C9.62 11.98 9.62 11.67 9.81 11.47L12.64 8.64C12.84 8.44 13.15 8.44 13.35 8.64L16.18 11.47C16.37 11.67 16.37 11.98 16.18 12.18C15.98 12.38 15.67 12.38 15.47 12.18L13.5 10.2L13.5 21C13.5 21.28 13.28 21.5 13 21.5C12.72 21.5 12.5 21.28 12.5 21L12.5 10.2Z" fill="#232323" fill-opacity="1.000000" fill-rule="evenodd"/>
</svg>
