<svg width="77" height="1`0" viewBox="0 0 77 98" fill="none" xmlns="http://www.w3.org/2000/svg">
<path d="M5 96.1328H72C74.7614 96.1328 77 93.8942 77 91.1328V16.1328L60 0.132812H5C2.23858 0.132812 0 2.37139 0 5.13281V91.1328C0 93.8942 2.23858 96.1328 5 96.1328Z" fill="#ACADB5"/>
<path d="M33.6241 40.1328H32.3341L28.9441 35.5128L25.5691 40.1328H24.2941L28.2841 34.7328L24.5491 29.6328H25.8241L28.9891 33.9228L32.1391 29.6328H33.3391L29.6191 34.7028L33.6241 40.1328ZM35.9766 40.1328V29.6328H37.0866V39.1728H42.9666V40.1328H35.9766ZM48.3374 40.2228C46.7624 40.2228 45.2174 39.6678 44.4374 38.8578L44.8724 38.0028C45.6224 38.7378 46.9574 39.2778 48.3374 39.2778C50.3024 39.2778 51.1574 38.4528 51.1574 37.4178C51.1574 34.5378 44.6924 36.3078 44.6924 32.4228C44.6924 30.8778 45.8924 29.5428 48.5624 29.5428C49.7474 29.5428 50.9774 29.8878 51.8174 30.4728L51.4424 31.3578C50.5424 30.7728 49.4924 30.4878 48.5624 30.4878C46.6424 30.4878 45.7874 31.3428 45.7874 32.3928C45.7874 35.2728 52.2524 33.5328 52.2524 37.3578C52.2524 38.9028 51.0224 40.2228 48.3374 40.2228Z" fill="white"/>
<path d="M65 16.1328H77L60 0.132812L60 11.1328C60 13.8942 62.2386 16.1328 65 16.1328Z" fill="#FFD600"/>
<path d="M56 69.6328L21 69.6328" stroke="white"/>
<path d="M32.5 77.1328L32.5 53.1328" stroke="white"/>
<path d="M44.5 77.1328L44.5 53.1328" stroke="white"/>
<path d="M56 61.6328L21 61.6328" stroke="white"/>
<rect x="20.5" y="53.6328" width="36" height="23" rx="1.5" stroke="white"/>
</svg>
